<svg width="67" height="13" viewBox="0 0 67 13" fill="none" xmlns="http://www.w3.org/2000/svg">
<path d="M0.147727 12H2.25568V7.05682H7.09091V5.28977H2.25568V2.13068H7.60227V0.363636H0.147727V12ZM9.30682 12H11.3636V6.86932C11.3636 5.76136 12.1989 4.97727 13.3295 4.97727C13.6761 4.97727 14.108 5.03977 14.2841 5.09659V3.20455C14.0966 3.17045 13.7727 3.14773 13.5455 3.14773C12.5455 3.14773 11.7102 3.71591 11.392 4.72727H11.3011V3.27273H9.30682V12ZM19.1548 12.1705C21.1889 12.1705 22.5866 11.1761 22.9503 9.65909L21.0298 9.44318C20.7514 10.1818 20.0696 10.5682 19.1832 10.5682C17.8537 10.5682 16.973 9.69318 16.956 8.19886H23.0355V7.56818C23.0355 4.50568 21.1946 3.15909 19.0469 3.15909C16.5469 3.15909 14.9162 4.99432 14.9162 7.6875C14.9162 10.4261 16.5241 12.1705 19.1548 12.1705ZM16.9616 6.8125C17.0241 5.69886 17.848 4.76136 19.0753 4.76136C20.2571 4.76136 21.0526 5.625 21.0639 6.8125H16.9616ZM28.6392 12.1705C30.6733 12.1705 32.071 11.1761 32.4347 9.65909L30.5142 9.44318C30.2358 10.1818 29.554 10.5682 28.6676 10.5682C27.3381 10.5682 26.4574 9.69318 26.4403 8.19886H32.5199V7.56818C32.5199 4.50568 30.679 3.15909 28.5312 3.15909C26.0312 3.15909 24.4006 4.99432 24.4006 7.6875C24.4006 10.4261 26.0085 12.1705 28.6392 12.1705ZM26.446 6.8125C26.5085 5.69886 27.3324 4.76136 28.5597 4.76136C29.7415 4.76136 30.5369 5.625 30.5483 6.8125H26.446ZM44.6435 3.5625H46.6719C46.6321 1.59659 44.956 0.204545 42.4787 0.204545C40.0355 0.204545 38.2003 1.57955 38.206 3.63636C38.206 5.30682 39.3935 6.26705 41.3082 6.76136L42.6321 7.10227C43.8878 7.42045 44.7173 7.8125 44.723 8.71591C44.7173 9.71023 43.7741 10.375 42.3991 10.375C41.081 10.375 40.0582 9.78409 39.973 8.5625H37.8991C37.9844 10.875 39.706 12.1761 42.4162 12.1761C45.206 12.1761 46.8253 10.7841 46.831 8.73295C46.8253 6.71591 45.1605 5.79545 43.4105 5.38068L42.3196 5.10795C41.3651 4.88068 40.331 4.47727 40.3423 3.50568C40.348 2.63068 41.1321 1.98864 42.4503 1.98864C43.706 1.98864 44.5355 2.57386 44.6435 3.5625ZM55.0341 3.5625H57.0625C57.0227 1.59659 55.3466 0.204545 52.8693 0.204545C50.4261 0.204545 48.5909 1.57955 48.5966 3.63636C48.5966 5.30682 49.7841 6.26705 51.6989 6.76136L53.0227 7.10227C54.2784 7.42045 55.108 7.8125 55.1136 8.71591C55.108 9.71023 54.1648 10.375 52.7898 10.375C51.4716 10.375 50.4489 9.78409 50.3636 8.5625H48.2898C48.375 10.875 50.0966 12.1761 52.8068 12.1761C55.5966 12.1761 57.2159 10.7841 57.2216 8.73295C57.2159 6.71591 55.5511 5.79545 53.8011 5.38068L52.7102 5.10795C51.7557 4.88068 50.7216 4.47727 50.733 3.50568C50.7386 2.63068 51.5227 1.98864 52.8409 1.98864C54.0966 1.98864 54.9261 2.57386 55.0341 3.5625ZM59.1009 12H66.3338V10.233H61.2088V0.363636H59.1009V12Z" fill="#808080"/>
</svg>
