<svg width="261" height="24" viewBox="0 0 261 24" fill="none" xmlns="http://www.w3.org/2000/svg">
<path d="M53.767 6.36364H51.7614L48.8693 8.22159V10.1534L51.5909 8.41477H51.6591V18H53.767V6.36364ZM60.767 18.1591C63.2273 18.1591 64.9432 16.4886 64.9432 14.1761C64.9432 11.9375 63.3864 10.3239 61.2727 10.3239C60.3295 10.3239 59.4943 10.6989 59.0625 11.2102H58.9943L59.3295 8.125H64.3352V6.36364H57.5852L56.9773 12.3636L58.8807 12.6761C59.2727 12.2443 60.0114 11.9545 60.7102 11.9602C61.9886 11.9659 62.9091 12.9091 62.9034 14.2273C62.9091 15.5284 62.0114 16.4545 60.767 16.4545C59.7159 16.4545 58.8693 15.7898 58.7955 14.8352H56.75C56.8068 16.767 58.4943 18.1591 60.767 18.1591ZM70.929 18H78.5426V16.233H73.0369V13.0568H78.1051V11.2898H73.0369V8.13068H78.4972V6.36364H70.929V18ZM80.5568 18H82.6136V12.6932C82.6136 11.6193 83.3295 10.892 84.2159 10.892C85.0852 10.892 85.6818 11.4773 85.6818 12.375V18H87.6989V12.5568C87.6989 11.5739 88.2841 10.892 89.2784 10.892C90.108 10.892 90.767 11.3807 90.767 12.4602V18H92.8295V12.142C92.8295 10.1932 91.7045 9.15909 90.1023 9.15909C88.8352 9.15909 87.8693 9.78409 87.483 10.7557H87.392C87.0568 9.76705 86.2102 9.15909 85.0341 9.15909C83.8636 9.15909 82.9886 9.76136 82.625 10.7557H82.5227V9.27273H80.5568V18ZM97.4276 18.1761C98.7969 18.1761 99.6151 17.5341 99.9901 16.8011H100.058V18H102.036V12.1591C102.036 9.85227 100.155 9.15909 98.4901 9.15909C96.6548 9.15909 95.2457 9.97727 94.7912 11.5682L96.7116 11.8409C96.9162 11.2443 97.4957 10.733 98.5014 10.733C99.456 10.733 99.9787 11.2216 99.9787 12.0795V12.1136C99.9787 12.7045 99.3594 12.733 97.8196 12.8977C96.1264 13.0795 94.5071 13.5852 94.5071 15.5511C94.5071 17.267 95.7628 18.1761 97.4276 18.1761ZM97.9616 16.6648C97.1037 16.6648 96.4901 16.2727 96.4901 15.517C96.4901 14.7273 97.1776 14.3977 98.098 14.267C98.6378 14.1932 99.7173 14.0568 99.9844 13.8409V14.8693C99.9844 15.8409 99.2003 16.6648 97.9616 16.6648ZM104.104 18H106.161V9.27273H104.104V18ZM105.138 8.03409C105.791 8.03409 106.325 7.53409 106.325 6.92045C106.325 6.30114 105.791 5.80114 105.138 5.80114C104.479 5.80114 103.945 6.30114 103.945 6.92045C103.945 7.53409 104.479 8.03409 105.138 8.03409ZM110.332 6.36364H108.276V18H110.332V6.36364ZM118.001 18L118.962 15.1307H123.337L124.303 18H126.553L122.45 6.36364H119.848L115.751 18H118.001ZM119.53 13.4375L121.104 8.75H121.195L122.768 13.4375H119.53ZM131.536 18.1705C133.729 18.1705 135.126 16.8693 135.274 15.017H133.308C133.132 15.9545 132.456 16.4943 131.553 16.4943C130.268 16.4943 129.439 15.4205 129.439 13.6364C129.439 11.875 130.286 10.8182 131.553 10.8182C132.541 10.8182 133.149 11.4545 133.308 12.2955H135.274C135.132 10.4034 133.655 9.15909 131.524 9.15909C128.967 9.15909 127.354 11.0057 127.354 13.6705C127.354 16.3125 128.928 18.1705 131.536 18.1705ZM140.77 18.1705C142.963 18.1705 144.361 16.8693 144.509 15.017H142.543C142.366 15.9545 141.69 16.4943 140.787 16.4943C139.503 16.4943 138.673 15.4205 138.673 13.6364C138.673 11.875 139.52 10.8182 140.787 10.8182C141.776 10.8182 142.384 11.4545 142.543 12.2955H144.509C144.366 10.4034 142.889 9.15909 140.759 9.15909C138.202 9.15909 136.588 11.0057 136.588 13.6705C136.588 16.3125 138.162 18.1705 140.77 18.1705ZM150.004 18.1705C152.561 18.1705 154.186 16.3693 154.186 13.6705C154.186 10.9659 152.561 9.15909 150.004 9.15909C147.447 9.15909 145.822 10.9659 145.822 13.6705C145.822 16.3693 147.447 18.1705 150.004 18.1705ZM150.016 16.5227C148.601 16.5227 147.908 15.2614 147.908 13.6648C147.908 12.0682 148.601 10.7898 150.016 10.7898C151.408 10.7898 152.101 12.0682 152.101 13.6648C152.101 15.2614 151.408 16.5227 150.016 16.5227ZM161.494 14.3295C161.494 15.6591 160.545 16.3182 159.636 16.3182C158.648 16.3182 157.989 15.6193 157.989 14.5114V9.27273H155.932V14.8295C155.932 16.9261 157.125 18.1136 158.841 18.1136C160.148 18.1136 161.068 17.4261 161.466 16.4489H161.557V18H163.551V9.27273H161.494V14.3295ZM167.723 12.8864C167.723 11.625 168.484 10.8977 169.57 10.8977C170.632 10.8977 171.268 11.5966 171.268 12.7614V18H173.325V12.4432C173.331 10.3523 172.138 9.15909 170.337 9.15909C169.03 9.15909 168.132 9.78409 167.734 10.7557H167.632V9.27273H165.666V18H167.723V12.8864ZM179.774 9.27273H178.053V7.18182H175.996V9.27273H174.757V10.8636H175.996V15.7159C175.984 17.358 177.178 18.1648 178.723 18.1193C179.308 18.1023 179.712 17.9886 179.933 17.9148L179.587 16.3068C179.473 16.3352 179.24 16.3864 178.984 16.3864C178.467 16.3864 178.053 16.2045 178.053 15.375V10.8636H179.774V9.27273ZM188.267 11.5795C187.983 10.1023 186.801 9.15909 184.756 9.15909C182.653 9.15909 181.222 10.1932 181.227 11.8068C181.222 13.0795 182.006 13.9205 183.682 14.267L185.17 14.5795C185.972 14.7557 186.347 15.0795 186.347 15.5739C186.347 16.1705 185.699 16.6193 184.722 16.6193C183.778 16.6193 183.165 16.2102 182.989 15.4261L180.983 15.6193C181.239 17.2216 182.585 18.1705 184.727 18.1705C186.909 18.1705 188.449 17.0398 188.455 15.3864C188.449 14.142 187.648 13.3807 186 13.0227L184.511 12.7045C183.625 12.5057 183.273 12.1989 183.278 11.6932C183.273 11.1023 183.926 10.6932 184.784 10.6932C185.733 10.6932 186.233 11.2102 186.392 11.7841L188.267 11.5795Z" fill="#808080"/>
<path d="M9.99301 19.421L3.28601 12.58L4.71401 11.18L10.007 16.579L19.293 7.293L20.707 8.707L9.99301 19.421Z" fill="black"/>
</svg>
