<svg width="261" height="24" viewBox="0 0 261 24" fill="none" xmlns="http://www.w3.org/2000/svg">
<path d="M9.99301 19.421L3.28601 12.58L4.71401 11.18L10.007 16.579L19.293 7.293L20.707 8.707L9.99301 19.421Z" fill="black"/>
<path d="M53.767 6.36364H51.7614L48.8693 8.22159V10.1534L51.5909 8.41477H51.6591V18H53.767V6.36364ZM61.0227 18.2216C63.8295 18.2273 65.5057 16.0114 65.5057 12.1932C65.5057 8.39773 63.8182 6.20455 61.0227 6.20455C58.2273 6.20455 56.5455 8.39205 56.5398 12.1932C56.5398 16.0057 58.2159 18.2216 61.0227 18.2216ZM61.0227 16.4432C59.5739 16.4432 58.6648 14.9886 58.6705 12.1932C58.6761 9.42045 59.5795 7.96023 61.0227 7.96023C62.4716 7.96023 63.375 9.42045 63.3807 12.1932C63.3807 14.9886 62.4773 16.4432 61.0227 16.4432ZM75.3026 10.0795H77.4503C77.0923 7.79545 75.1151 6.20455 72.5412 6.20455C69.4957 6.20455 67.2116 8.44318 67.2116 12.1932C67.2116 15.875 69.3935 18.1591 72.6037 18.1591C75.4844 18.1591 77.5469 16.3068 77.5469 13.3068V11.9091H72.8253V13.5568H75.5071C75.473 15.2159 74.3651 16.267 72.6151 16.267C70.6662 16.267 69.331 14.8068 69.331 12.1705C69.331 9.55114 70.6889 8.09659 72.5696 8.09659C73.973 8.09659 74.9276 8.84659 75.3026 10.0795ZM79.5852 18H84.2955C86.9602 18 88.267 16.642 88.267 14.8295C88.267 13.0682 87.017 12.0341 85.7784 11.9716V11.858C86.9148 11.5909 87.8125 10.7955 87.8125 9.38068C87.8125 7.64773 86.5625 6.36364 84.0398 6.36364H79.5852V18ZM81.6932 16.2386V12.8295H84.017C85.3182 12.8295 86.125 13.625 86.125 14.6648C86.125 15.5909 85.4886 16.2386 83.9602 16.2386H81.6932ZM81.6932 11.3125V8.10227H83.8239C85.0625 8.10227 85.7045 8.75568 85.7045 9.65341C85.7045 10.6761 84.875 11.3125 83.7784 11.3125H81.6932ZM94.0696 18H98.7798C101.445 18 102.751 16.642 102.751 14.8295C102.751 13.0682 101.501 12.0341 100.263 11.9716V11.858C101.399 11.5909 102.297 10.7955 102.297 9.38068C102.297 7.64773 101.047 6.36364 98.5241 6.36364H94.0696V18ZM96.1776 16.2386V12.8295H98.5014C99.8026 12.8295 100.609 13.625 100.609 14.6648C100.609 15.5909 99.973 16.2386 98.4446 16.2386H96.1776ZM96.1776 11.3125V8.10227H98.3082C99.5469 8.10227 100.189 8.75568 100.189 9.65341C100.189 10.6761 99.3594 11.3125 98.2628 11.3125H96.1776ZM107.006 18.1761C108.375 18.1761 109.193 17.5341 109.568 16.8011H109.636V18H111.614V12.1591C111.614 9.85227 109.733 9.15909 108.068 9.15909C106.233 9.15909 104.824 9.97727 104.369 11.5682L106.29 11.8409C106.494 11.2443 107.074 10.733 108.08 10.733C109.034 10.733 109.557 11.2216 109.557 12.0795V12.1136C109.557 12.7045 108.938 12.733 107.398 12.8977C105.705 13.0795 104.085 13.5852 104.085 15.5511C104.085 17.267 105.341 18.1761 107.006 18.1761ZM107.54 16.6648C106.682 16.6648 106.068 16.2727 106.068 15.517C106.068 14.7273 106.756 14.3977 107.676 14.267C108.216 14.1932 109.295 14.0568 109.562 13.8409V14.8693C109.562 15.8409 108.778 16.6648 107.54 16.6648ZM115.739 12.8864C115.739 11.625 116.5 10.8977 117.585 10.8977C118.648 10.8977 119.284 11.5966 119.284 12.7614V18H121.341V12.4432C121.347 10.3523 120.153 9.15909 118.352 9.15909C117.045 9.15909 116.148 9.78409 115.75 10.7557H115.648V9.27273H113.682V18H115.739V12.8864ZM126.67 18.1534C128.17 18.1534 128.847 17.2614 129.17 16.625H129.295V18H131.318V6.36364H129.256V10.7159H129.17C128.858 10.0852 128.216 9.15909 126.676 9.15909C124.659 9.15909 123.074 10.7386 123.074 13.6477C123.074 16.5227 124.614 18.1534 126.67 18.1534ZM127.244 16.4659C125.886 16.4659 125.17 15.2727 125.17 13.6364C125.17 12.0114 125.875 10.8466 127.244 10.8466C128.568 10.8466 129.295 11.9432 129.295 13.6364C129.295 15.3295 128.557 16.4659 127.244 16.4659ZM135.311 18H137.459L139.095 12.1023H139.214L140.851 18H142.993L145.464 9.27273H143.362L141.851 15.375H141.766L140.197 9.27273H138.124L136.555 15.4091H136.476L134.942 9.27273H132.845L135.311 18ZM146.901 18H148.957V9.27273H146.901V18ZM147.935 8.03409C148.588 8.03409 149.122 7.53409 149.122 6.92045C149.122 6.30114 148.588 5.80114 147.935 5.80114C147.276 5.80114 146.741 6.30114 146.741 6.92045C146.741 7.53409 147.276 8.03409 147.935 8.03409ZM154.311 18.1534C155.811 18.1534 156.487 17.2614 156.811 16.625H156.936V18H158.959V6.36364H156.896V10.7159H156.811C156.499 10.0852 155.857 9.15909 154.317 9.15909C152.3 9.15909 150.714 10.7386 150.714 13.6477C150.714 16.5227 152.254 18.1534 154.311 18.1534ZM154.885 16.4659C153.527 16.4659 152.811 15.2727 152.811 13.6364C152.811 12.0114 153.516 10.8466 154.885 10.8466C156.209 10.8466 156.936 11.9432 156.936 13.6364C156.936 15.3295 156.197 16.4659 154.885 16.4659ZM165.509 9.27273H163.787V7.18182H161.73V9.27273H160.491V10.8636H161.73V15.7159C161.719 17.358 162.912 18.1648 164.457 18.1193C165.043 18.1023 165.446 17.9886 165.668 17.9148L165.321 16.3068C165.207 16.3352 164.974 16.3864 164.719 16.3864C164.202 16.3864 163.787 16.2045 163.787 15.375V10.8636H165.509V9.27273ZM169.473 12.8864C169.473 11.625 170.257 10.8977 171.359 10.8977C172.439 10.8977 173.075 11.5852 173.075 12.7614V18H175.132V12.4432C175.132 10.3352 173.939 9.15909 172.126 9.15909C170.786 9.15909 169.933 9.76705 169.53 10.7557H169.428V6.36364H167.416V18H169.473V12.8864Z" fill="#808080"/>
</svg>
