<svg width="201" height="24" viewBox="0 0 201 24" fill="none" xmlns="http://www.w3.org/2000/svg">
<path d="M56.1989 6.36364V13.7102C56.1989 15.0398 55.267 16 53.8352 16C52.4091 16 51.4716 15.0398 51.4716 13.7102V6.36364H49.0114V13.9205C49.0114 16.4659 50.9318 18.1648 53.8352 18.1648C56.7273 18.1648 58.6591 16.4659 58.6591 13.9205V6.36364H56.1989ZM63.0582 12.9545C63.0639 11.8295 63.7344 11.1705 64.7116 11.1705C65.6832 11.1705 66.2685 11.8068 66.2628 12.875V18H68.6832V12.4432C68.6832 10.4091 67.4901 9.15909 65.6719 9.15909C64.3764 9.15909 63.4389 9.79545 63.0469 10.8125H62.9446V9.27273H60.6378V18H63.0582V12.9545ZM73.0114 6.36364H70.5909V18H73.0114V6.36364ZM74.9503 18H77.3707V9.27273H74.9503V18ZM76.1662 8.14773C76.8878 8.14773 77.4787 7.59659 77.4787 6.92045C77.4787 6.25 76.8878 5.69886 76.1662 5.69886C75.4503 5.69886 74.8594 6.25 74.8594 6.92045C74.8594 7.59659 75.4503 8.14773 76.1662 8.14773ZM79.3097 18H81.7301V12.7614C81.7301 11.7955 82.3438 11.1534 83.1506 11.1534C83.946 11.1534 84.4801 11.6989 84.4801 12.5568V18H86.8267V12.6705C86.8267 11.767 87.3438 11.1534 88.2244 11.1534C88.9972 11.1534 89.5767 11.6364 89.5767 12.608V18H91.9915V12.1307C91.9915 10.2386 90.8665 9.15909 89.2415 9.15909C87.9631 9.15909 86.9688 9.8125 86.6108 10.8125H86.5199C86.2415 9.80114 85.3494 9.15909 84.1506 9.15909C82.9744 9.15909 82.0824 9.78409 81.7188 10.8125H81.6165V9.27273H79.3097V18ZM93.9034 18H96.3239V9.27273H93.9034V18ZM95.1193 8.14773C95.8409 8.14773 96.4318 7.59659 96.4318 6.92045C96.4318 6.25 95.8409 5.69886 95.1193 5.69886C94.4034 5.69886 93.8125 6.25 93.8125 6.92045C93.8125 7.59659 94.4034 8.14773 95.1193 8.14773ZM102.905 9.27273H101.263V7.18182H98.8423V9.27273H97.6491V11.0909H98.8423V15.6364C98.831 17.3466 99.9957 18.1932 101.751 18.1193C102.376 18.0966 102.82 17.9716 103.064 17.892L102.683 16.0909C102.564 16.1136 102.308 16.1705 102.081 16.1705C101.598 16.1705 101.263 15.9886 101.263 15.3182V11.0909H102.905V9.27273ZM108.365 18.1705C110.524 18.1705 111.979 17.1193 112.32 15.5L110.081 15.3523C109.837 16.017 109.212 16.3636 108.405 16.3636C107.195 16.3636 106.428 15.5625 106.428 14.2614V14.2557H112.371V13.5909C112.371 10.625 110.575 9.15909 108.268 9.15909C105.7 9.15909 104.036 10.983 104.036 13.6761C104.036 16.4432 105.678 18.1705 108.365 18.1705ZM106.428 12.7557C106.479 11.7614 107.234 10.9659 108.308 10.9659C109.359 10.9659 110.087 11.7159 110.092 12.7557H106.428ZM117.166 18.142C118.575 18.142 119.308 17.3295 119.643 16.6023H119.746V18H122.132V6.36364H119.717V10.7386H119.643C119.32 10.0284 118.621 9.15909 117.161 9.15909C115.246 9.15909 113.626 10.6477 113.626 13.6477C113.626 16.5682 115.178 18.142 117.166 18.142ZM117.933 16.2159C116.746 16.2159 116.098 15.1591 116.098 13.6364C116.098 12.125 116.734 11.0852 117.933 11.0852C119.109 11.0852 119.768 12.0795 119.768 13.6364C119.768 15.1932 119.098 16.2159 117.933 16.2159ZM131.996 18C135.541 18 137.689 15.8068 137.689 12.1705C137.689 8.54545 135.541 6.36364 132.03 6.36364H127.871V18H131.996ZM130.331 15.892V8.47159H131.899C134.081 8.47159 135.234 9.58523 135.234 12.1705C135.234 14.767 134.081 15.892 131.893 15.892H130.331ZM141.955 18.1648C143.244 18.1648 144.08 17.6023 144.506 16.7898H144.574V18H146.869V12.1136C146.869 10.0341 145.108 9.15909 143.165 9.15909C141.074 9.15909 139.699 10.1591 139.364 11.75L141.602 11.9318C141.767 11.3523 142.284 10.9261 143.153 10.9261C143.977 10.9261 144.449 11.3409 144.449 12.0568V12.0909C144.449 12.6534 143.852 12.7273 142.335 12.875C140.608 13.0341 139.057 13.6136 139.057 15.5625C139.057 17.2898 140.29 18.1648 141.955 18.1648ZM142.648 16.4943C141.903 16.4943 141.369 16.1477 141.369 15.483C141.369 14.8011 141.932 14.4659 142.784 14.3466C143.312 14.2727 144.176 14.1477 144.466 13.9545V14.8807C144.466 15.7955 143.71 16.4943 142.648 16.4943ZM153.389 9.27273H151.747V7.18182H149.327V9.27273H148.134V11.0909H149.327V15.6364C149.315 17.3466 150.48 18.1932 152.236 18.1193C152.861 18.0966 153.304 17.9716 153.548 17.892L153.168 16.0909C153.048 16.1136 152.793 16.1705 152.565 16.1705C152.082 16.1705 151.747 15.9886 151.747 15.3182V11.0909H153.389V9.27273ZM157.455 18.1648C158.744 18.1648 159.58 17.6023 160.006 16.7898H160.074V18H162.369V12.1136C162.369 10.0341 160.608 9.15909 158.665 9.15909C156.574 9.15909 155.199 10.1591 154.864 11.75L157.102 11.9318C157.267 11.3523 157.784 10.9261 158.653 10.9261C159.477 10.9261 159.949 11.3409 159.949 12.0568V12.0909C159.949 12.6534 159.352 12.7273 157.835 12.875C156.108 13.0341 154.557 13.6136 154.557 15.5625C154.557 17.2898 155.79 18.1648 157.455 18.1648ZM158.148 16.4943C157.403 16.4943 156.869 16.1477 156.869 15.483C156.869 14.8011 157.432 14.4659 158.284 14.3466C158.812 14.2727 159.676 14.1477 159.966 13.9545V14.8807C159.966 15.7955 159.21 16.4943 158.148 16.4943ZM164.293 18H166.679V16.6023H166.787C167.122 17.3295 167.855 18.142 169.264 18.142C171.253 18.142 172.804 16.5682 172.804 13.6477C172.804 10.6477 171.185 9.15909 169.27 9.15909C167.81 9.15909 167.111 10.0284 166.787 10.7386H166.713V6.36364H164.293V18ZM166.662 13.6364C166.662 12.0795 167.321 11.0852 168.497 11.0852C169.696 11.0852 170.332 12.125 170.332 13.6364C170.332 15.1591 169.685 16.2159 168.497 16.2159C167.332 16.2159 166.662 15.1932 166.662 13.6364ZM176.908 18.1648C178.197 18.1648 179.033 17.6023 179.459 16.7898H179.527V18H181.822V12.1136C181.822 10.0341 180.061 9.15909 178.118 9.15909C176.027 9.15909 174.652 10.1591 174.317 11.75L176.555 11.9318C176.72 11.3523 177.237 10.9261 178.107 10.9261C178.93 10.9261 179.402 11.3409 179.402 12.0568V12.0909C179.402 12.6534 178.805 12.7273 177.288 12.875C175.561 13.0341 174.01 13.6136 174.01 15.5625C174.01 17.2898 175.243 18.1648 176.908 18.1648ZM177.601 16.4943C176.857 16.4943 176.322 16.1477 176.322 15.483C176.322 14.8011 176.885 14.4659 177.737 14.3466C178.266 14.2727 179.129 14.1477 179.419 13.9545V14.8807C179.419 15.7955 178.663 16.4943 177.601 16.4943ZM190.962 11.7614C190.746 10.1534 189.45 9.15909 187.246 9.15909C185.013 9.15909 183.541 10.1932 183.547 11.875C183.541 13.1818 184.365 14.0284 186.07 14.3693L187.581 14.6705C188.342 14.8239 188.689 15.1023 188.7 15.5398C188.689 16.0568 188.126 16.4261 187.28 16.4261C186.416 16.4261 185.842 16.0568 185.695 15.3466L183.314 15.4716C183.541 17.142 184.962 18.1705 187.274 18.1705C189.536 18.1705 191.155 17.017 191.161 15.2955C191.155 14.0341 190.331 13.2784 188.638 12.9318L187.058 12.6136C186.246 12.4375 185.945 12.1591 185.95 11.7386C185.945 11.2159 186.536 10.875 187.286 10.875C188.126 10.875 188.626 11.3352 188.746 11.8977L190.962 11.7614ZM196.662 18.1705C198.821 18.1705 200.276 17.1193 200.616 15.5L198.378 15.3523C198.134 16.017 197.509 16.3636 196.702 16.3636C195.491 16.3636 194.724 15.5625 194.724 14.2614V14.2557H200.668V13.5909C200.668 10.625 198.872 9.15909 196.565 9.15909C193.997 9.15909 192.332 10.983 192.332 13.6761C192.332 16.4432 193.974 18.1705 196.662 18.1705ZM194.724 12.7557C194.776 11.7614 195.531 10.9659 196.605 10.9659C197.656 10.9659 198.384 11.7159 198.389 12.7557H194.724Z" fill="#808080"/>
<path d="M9.99301 19.421L3.28601 12.58L4.71401 11.18L10.007 16.579L19.293 7.293L20.707 8.707L9.99301 19.421Z" fill="black"/>
</svg>
