<svg width="264" height="24" viewBox="0 0 264 24" fill="none" xmlns="http://www.w3.org/2000/svg">
<path d="M9.99301 19.421L3.28601 12.58L4.71401 11.18L10.007 16.579L19.293 7.293L20.707 8.707L9.99301 19.421Z" fill="black"/>
<path d="M49.0341 18H57.0114V16.2386H51.9432V16.1591L53.9489 14.1193C56.2102 11.9489 56.8352 10.892 56.8352 9.57955C56.8352 7.63068 55.25 6.20455 52.9091 6.20455C50.6023 6.20455 48.9659 7.63636 48.9659 9.84659H50.9716C50.9716 8.65909 51.7216 7.91477 52.8807 7.91477C53.9886 7.91477 54.8125 8.59091 54.8125 9.6875C54.8125 10.6591 54.2216 11.3523 53.0739 12.517L49.0341 16.4773V18ZM65.5028 18H67.5824L69.9176 9.83523H70.0085L72.3381 18H74.4176L77.7017 6.36364H75.4347L73.3381 14.9205H73.2358L70.9915 6.36364H68.929L66.6903 14.9148H66.5824L64.4858 6.36364H62.2188L65.5028 18ZM82.0455 18.1705C84.0795 18.1705 85.4773 17.1761 85.8409 15.6591L83.9205 15.4432C83.642 16.1818 82.9602 16.5682 82.0739 16.5682C80.7443 16.5682 79.8636 15.6932 79.8466 14.1989H85.9261V13.5682C85.9261 10.5057 84.0852 9.15909 81.9375 9.15909C79.4375 9.15909 77.8068 10.9943 77.8068 13.6875C77.8068 16.4261 79.4148 18.1705 82.0455 18.1705ZM79.8523 12.8125C79.9148 11.6989 80.7386 10.7614 81.9659 10.7614C83.1477 10.7614 83.9432 11.625 83.9545 12.8125H79.8523ZM87.7571 18H89.7798V16.625H89.8991C90.223 17.2614 90.8991 18.1534 92.3991 18.1534C94.456 18.1534 95.9957 16.5227 95.9957 13.6477C95.9957 10.7386 94.4105 9.15909 92.3935 9.15909C90.8537 9.15909 90.2116 10.0852 89.8991 10.7159H89.8139V6.36364H87.7571V18ZM89.7741 13.6364C89.7741 11.9432 90.5014 10.8466 91.8253 10.8466C93.1946 10.8466 93.8991 12.0114 93.8991 13.6364C93.8991 15.2727 93.1832 16.4659 91.8253 16.4659C90.5128 16.4659 89.7741 15.3295 89.7741 13.6364ZM104.642 11.5795C104.358 10.1023 103.176 9.15909 101.131 9.15909C99.0284 9.15909 97.5966 10.1932 97.6023 11.8068C97.5966 13.0795 98.3807 13.9205 100.057 14.267L101.545 14.5795C102.347 14.7557 102.722 15.0795 102.722 15.5739C102.722 16.1705 102.074 16.6193 101.097 16.6193C100.153 16.6193 99.5398 16.2102 99.3636 15.4261L97.358 15.6193C97.6136 17.2216 98.9602 18.1705 101.102 18.1705C103.284 18.1705 104.824 17.0398 104.83 15.3864C104.824 14.142 104.023 13.3807 102.375 13.0227L100.886 12.7045C100 12.5057 99.6477 12.1989 99.6534 11.6932C99.6477 11.1023 100.301 10.6932 101.159 10.6932C102.108 10.6932 102.608 11.2102 102.767 11.7841L104.642 11.5795ZM106.526 18H108.582V9.27273H106.526V18ZM107.56 8.03409C108.213 8.03409 108.747 7.53409 108.747 6.92045C108.747 6.30114 108.213 5.80114 107.56 5.80114C106.901 5.80114 106.366 6.30114 106.366 6.92045C106.366 7.53409 106.901 8.03409 107.56 8.03409ZM115.055 9.27273H113.334V7.18182H111.277V9.27273H110.038V10.8636H111.277V15.7159C111.266 17.358 112.459 18.1648 114.004 18.1193C114.589 18.1023 114.993 17.9886 115.214 17.9148L114.868 16.3068C114.754 16.3352 114.521 16.3864 114.266 16.3864C113.749 16.3864 113.334 16.2045 113.334 15.375V10.8636H115.055V9.27273ZM120.545 18.1705C122.58 18.1705 123.977 17.1761 124.341 15.6591L122.42 15.4432C122.142 16.1818 121.46 16.5682 120.574 16.5682C119.244 16.5682 118.364 15.6932 118.347 14.1989H124.426V13.5682C124.426 10.5057 122.585 9.15909 120.438 9.15909C117.938 9.15909 116.307 10.9943 116.307 13.6875C116.307 16.4261 117.915 18.1705 120.545 18.1705ZM118.352 12.8125C118.415 11.6989 119.239 10.7614 120.466 10.7614C121.648 10.7614 122.443 11.625 122.455 12.8125H118.352ZM133.064 11.5795C132.78 10.1023 131.598 9.15909 129.553 9.15909C127.45 9.15909 126.018 10.1932 126.024 11.8068C126.018 13.0795 126.803 13.9205 128.479 14.267L129.967 14.5795C130.768 14.7557 131.143 15.0795 131.143 15.5739C131.143 16.1705 130.496 16.6193 129.518 16.6193C128.575 16.6193 127.962 16.2102 127.786 15.4261L125.78 15.6193C126.036 17.2216 127.382 18.1705 129.524 18.1705C131.706 18.1705 133.246 17.0398 133.251 15.3864C133.246 14.142 132.445 13.3807 130.797 13.0227L129.308 12.7045C128.422 12.5057 128.07 12.1989 128.075 11.6932C128.07 11.1023 128.723 10.6932 129.581 10.6932C130.53 10.6932 131.03 11.2102 131.189 11.7841L133.064 11.5795Z" fill="#808080"/>
</svg>
