<svg width="261" height="24" viewBox="0 0 261 24" fill="none" xmlns="http://www.w3.org/2000/svg">
<path d="M48.8239 15.8409H54.375V18H56.3864V15.8409H57.875V14.108H56.3864V6.36364H53.7614L48.8239 14.1648V15.8409ZM54.3977 14.108H50.983V14.017L54.3068 8.75H54.3977V14.108ZM70.0966 9.5625H72.125C72.0852 7.59659 70.4091 6.20455 67.9318 6.20455C65.4886 6.20455 63.6534 7.57955 63.6591 9.63636C63.6591 11.3068 64.8466 12.267 66.7614 12.7614L68.0852 13.1023C69.3409 13.4205 70.1705 13.8125 70.1761 14.7159C70.1705 15.7102 69.2273 16.375 67.8523 16.375C66.5341 16.375 65.5114 15.7841 65.4261 14.5625H63.3523C63.4375 16.875 65.1591 18.1761 67.8693 18.1761C70.6591 18.1761 72.2784 16.7841 72.2841 14.733C72.2784 12.7159 70.6136 11.7955 68.8636 11.3807L67.7727 11.108C66.8182 10.8807 65.7841 10.4773 65.7955 9.50568C65.8011 8.63068 66.5852 7.98864 67.9034 7.98864C69.1591 7.98864 69.9886 8.57386 70.0966 9.5625ZM79.6349 14.3295C79.6349 15.6591 78.6861 16.3182 77.777 16.3182C76.7884 16.3182 76.1293 15.6193 76.1293 14.5114V9.27273H74.0724V14.8295C74.0724 16.9261 75.2656 18.1136 76.9815 18.1136C78.2884 18.1136 79.2088 17.4261 79.6065 16.4489H79.6974V18H81.6918V9.27273H79.6349V14.3295ZM83.8977 18H85.9205V16.625H86.0398C86.3636 17.2614 87.0398 18.1534 88.5398 18.1534C90.5966 18.1534 92.1364 16.5227 92.1364 13.6477C92.1364 10.7386 90.5511 9.15909 88.5341 9.15909C86.9943 9.15909 86.3523 10.0852 86.0398 10.7159H85.9545V6.36364H83.8977V18ZM85.9148 13.6364C85.9148 11.9432 86.642 10.8466 87.9659 10.8466C89.3352 10.8466 90.0398 12.0114 90.0398 13.6364C90.0398 15.2727 89.3239 16.4659 87.9659 16.4659C86.6534 16.4659 85.9148 15.3295 85.9148 13.6364ZM97.1236 18.1534C98.6236 18.1534 99.2997 17.2614 99.6236 16.625H99.7486V18H101.771V6.36364H99.7088V10.7159H99.6236C99.3111 10.0852 98.669 9.15909 97.1293 9.15909C95.1122 9.15909 93.527 10.7386 93.527 13.6477C93.527 16.5227 95.0668 18.1534 97.1236 18.1534ZM97.6974 16.4659C96.3395 16.4659 95.6236 15.2727 95.6236 13.6364C95.6236 12.0114 96.3281 10.8466 97.6974 10.8466C99.0213 10.8466 99.7486 11.9432 99.7486 13.6364C99.7486 15.3295 99.0099 16.4659 97.6974 16.4659ZM107.77 18.1705C110.327 18.1705 111.952 16.3693 111.952 13.6705C111.952 10.9659 110.327 9.15909 107.77 9.15909C105.213 9.15909 103.588 10.9659 103.588 13.6705C103.588 16.3693 105.213 18.1705 107.77 18.1705ZM107.781 16.5227C106.366 16.5227 105.673 15.2614 105.673 13.6648C105.673 12.0682 106.366 10.7898 107.781 10.7898C109.173 10.7898 109.866 12.0682 109.866 13.6648C109.866 15.2614 109.173 16.5227 107.781 16.5227ZM113.697 18H115.754V12.6932C115.754 11.6193 116.47 10.892 117.357 10.892C118.226 10.892 118.822 11.4773 118.822 12.375V18H120.839V12.5568C120.839 11.5739 121.425 10.892 122.419 10.892C123.249 10.892 123.908 11.3807 123.908 12.4602V18H125.97V12.142C125.97 10.1932 124.845 9.15909 123.243 9.15909C121.976 9.15909 121.01 9.78409 120.624 10.7557H120.533C120.197 9.76705 119.351 9.15909 118.175 9.15909C117.004 9.15909 116.129 9.76136 115.766 10.7557H115.663V9.27273H113.697V18ZM130.568 18.1761C131.938 18.1761 132.756 17.5341 133.131 16.8011H133.199V18H135.176V12.1591C135.176 9.85227 133.295 9.15909 131.631 9.15909C129.795 9.15909 128.386 9.97727 127.932 11.5682L129.852 11.8409C130.057 11.2443 130.636 10.733 131.642 10.733C132.597 10.733 133.119 11.2216 133.119 12.0795V12.1136C133.119 12.7045 132.5 12.733 130.96 12.8977C129.267 13.0795 127.648 13.5852 127.648 15.5511C127.648 17.267 128.903 18.1761 130.568 18.1761ZM131.102 16.6648C130.244 16.6648 129.631 16.2727 129.631 15.517C129.631 14.7273 130.318 14.3977 131.239 14.267C131.778 14.1932 132.858 14.0568 133.125 13.8409V14.8693C133.125 15.8409 132.341 16.6648 131.102 16.6648ZM137.244 18H139.301V9.27273H137.244V18ZM138.278 8.03409C138.932 8.03409 139.466 7.53409 139.466 6.92045C139.466 6.30114 138.932 5.80114 138.278 5.80114C137.619 5.80114 137.085 6.30114 137.085 6.92045C137.085 7.53409 137.619 8.03409 138.278 8.03409ZM143.473 12.8864C143.473 11.625 144.234 10.8977 145.32 10.8977C146.382 10.8977 147.018 11.5966 147.018 12.7614V18H149.075V12.4432C149.081 10.3523 147.888 9.15909 146.087 9.15909C144.78 9.15909 143.882 9.78409 143.484 10.7557H143.382V9.27273H141.416V18H143.473V12.8864ZM158.064 11.5795C157.78 10.1023 156.598 9.15909 154.553 9.15909C152.45 9.15909 151.018 10.1932 151.024 11.8068C151.018 13.0795 151.803 13.9205 153.479 14.267L154.967 14.5795C155.768 14.7557 156.143 15.0795 156.143 15.5739C156.143 16.1705 155.496 16.6193 154.518 16.6193C153.575 16.6193 152.962 16.2102 152.786 15.4261L150.78 15.6193C151.036 17.2216 152.382 18.1705 154.524 18.1705C156.706 18.1705 158.246 17.0398 158.251 15.3864C158.246 14.142 157.445 13.3807 155.797 13.0227L154.308 12.7045C153.422 12.5057 153.07 12.1989 153.075 11.6932C153.07 11.1023 153.723 10.6932 154.581 10.6932C155.53 10.6932 156.03 11.2102 156.189 11.7841L158.064 11.5795Z" fill="#808080"/>
<path d="M9.99301 19.421L3.28601 12.58L4.71401 11.18L10.007 16.579L19.293 7.293L20.707 8.707L9.99301 19.421Z" fill="black"/>
</svg>
