<svg width="261" height="24" viewBox="0 0 261 24" fill="none" xmlns="http://www.w3.org/2000/svg">
<path d="M9.99301 19.421L3.28601 12.58L4.71401 11.18L10.007 16.579L19.293 7.293L20.707 8.707L9.99301 19.421Z" fill="black"/>
<path d="M53.767 6.36364H51.7614L48.8693 8.22159V10.1534L51.5909 8.41477H51.6591V18H53.767V6.36364ZM60.804 18H62.9119V14.0682H65.1392C67.8267 14.0682 69.2699 12.4545 69.2699 10.2159C69.2699 7.99432 67.8438 6.36364 65.1676 6.36364H60.804V18ZM62.9119 12.3352V8.125H64.8438C66.4233 8.125 67.1222 8.97727 67.1222 10.2159C67.1222 11.4545 66.4233 12.3352 64.8551 12.3352H62.9119ZM73.3651 18.1761C74.7344 18.1761 75.5526 17.5341 75.9276 16.8011H75.9957V18H77.973V12.1591C77.973 9.85227 76.0923 9.15909 74.4276 9.15909C72.5923 9.15909 71.1832 9.97727 70.7287 11.5682L72.6491 11.8409C72.8537 11.2443 73.4332 10.733 74.4389 10.733C75.3935 10.733 75.9162 11.2216 75.9162 12.0795V12.1136C75.9162 12.7045 75.2969 12.733 73.7571 12.8977C72.0639 13.0795 70.4446 13.5852 70.4446 15.5511C70.4446 17.267 71.7003 18.1761 73.3651 18.1761ZM73.8991 16.6648C73.0412 16.6648 72.4276 16.2727 72.4276 15.517C72.4276 14.7273 73.1151 14.3977 74.0355 14.267C74.5753 14.1932 75.6548 14.0568 75.9219 13.8409V14.8693C75.9219 15.8409 75.1378 16.6648 73.8991 16.6648ZM80.0412 18H82.098V12.8693C82.098 11.7614 82.9332 10.9773 84.0639 10.9773C84.4105 10.9773 84.8423 11.0398 85.0185 11.0966V9.20455C84.831 9.17045 84.5071 9.14773 84.2798 9.14773C83.2798 9.14773 82.4446 9.71591 82.1264 10.7273H82.0355V9.27273H80.0412V18ZM86.3849 18H88.4418V15.0682L89.1918 14.267L91.8622 18H94.3224L90.7429 13.0398L94.1236 9.27273H91.7202L88.5838 12.7784H88.4418V6.36364H86.3849V18ZM98.9986 18.1705C101.033 18.1705 102.43 17.1761 102.794 15.6591L100.874 15.4432C100.595 16.1818 99.9134 16.5682 99.027 16.5682C97.6974 16.5682 96.8168 15.6932 96.7997 14.1989H102.879V13.5682C102.879 10.5057 101.038 9.15909 98.8906 9.15909C96.3906 9.15909 94.7599 10.9943 94.7599 13.6875C94.7599 16.4261 96.3679 18.1705 98.9986 18.1705ZM96.8054 12.8125C96.8679 11.6989 97.6918 10.7614 98.919 10.7614C100.101 10.7614 100.896 11.625 100.908 12.8125H96.8054ZM107.858 18.1534C109.358 18.1534 110.034 17.2614 110.358 16.625H110.483V18H112.506V6.36364H110.443V10.7159H110.358C110.045 10.0852 109.403 9.15909 107.864 9.15909C105.847 9.15909 104.261 10.7386 104.261 13.6477C104.261 16.5227 105.801 18.1534 107.858 18.1534ZM108.432 16.4659C107.074 16.4659 106.358 15.2727 106.358 13.6364C106.358 12.0114 107.062 10.8466 108.432 10.8466C109.756 10.8466 110.483 11.9432 110.483 13.6364C110.483 15.3295 109.744 16.4659 108.432 16.4659ZM122.7 18C126.246 18 128.348 15.8068 128.348 12.1705C128.348 8.54545 126.246 6.36364 122.78 6.36364H118.757V18H122.7ZM120.865 16.1761V8.1875H122.661C125.024 8.1875 126.257 9.50568 126.257 12.1705C126.257 14.8466 125.024 16.1761 122.598 16.1761H120.865ZM134.067 18.1705C136.624 18.1705 138.249 16.3693 138.249 13.6705C138.249 10.9659 136.624 9.15909 134.067 9.15909C131.51 9.15909 129.885 10.9659 129.885 13.6705C129.885 16.3693 131.51 18.1705 134.067 18.1705ZM134.078 16.5227C132.663 16.5227 131.97 15.2614 131.97 13.6648C131.97 12.0682 132.663 10.7898 134.078 10.7898C135.47 10.7898 136.163 12.0682 136.163 13.6648C136.163 15.2614 135.47 16.5227 134.078 16.5227ZM139.994 18H142.051V12.6932C142.051 11.6193 142.767 10.892 143.653 10.892C144.523 10.892 145.119 11.4773 145.119 12.375V18H147.136V12.5568C147.136 11.5739 147.722 10.892 148.716 10.892C149.545 10.892 150.205 11.3807 150.205 12.4602V18H152.267V12.142C152.267 10.1932 151.142 9.15909 149.54 9.15909C148.273 9.15909 147.307 9.78409 146.92 10.7557H146.83C146.494 9.76705 145.648 9.15909 144.472 9.15909C143.301 9.15909 142.426 9.76136 142.062 10.7557H141.96V9.27273H139.994V18ZM156.865 18.1761C158.234 18.1761 159.053 17.5341 159.428 16.8011H159.496V18H161.473V12.1591C161.473 9.85227 159.592 9.15909 157.928 9.15909C156.092 9.15909 154.683 9.97727 154.229 11.5682L156.149 11.8409C156.354 11.2443 156.933 10.733 157.939 10.733C158.893 10.733 159.416 11.2216 159.416 12.0795V12.1136C159.416 12.7045 158.797 12.733 157.257 12.8977C155.564 13.0795 153.945 13.5852 153.945 15.5511C153.945 17.267 155.2 18.1761 156.865 18.1761ZM157.399 16.6648C156.541 16.6648 155.928 16.2727 155.928 15.517C155.928 14.7273 156.615 14.3977 157.536 14.267C158.075 14.1932 159.155 14.0568 159.422 13.8409V14.8693C159.422 15.8409 158.638 16.6648 157.399 16.6648ZM163.541 18H165.598V9.27273H163.541V18ZM164.575 8.03409C165.229 8.03409 165.763 7.53409 165.763 6.92045C165.763 6.30114 165.229 5.80114 164.575 5.80114C163.916 5.80114 163.382 6.30114 163.382 6.92045C163.382 7.53409 163.916 8.03409 164.575 8.03409ZM169.77 12.8864C169.77 11.625 170.531 10.8977 171.616 10.8977C172.679 10.8977 173.315 11.5966 173.315 12.7614V18H175.372V12.4432C175.378 10.3523 174.185 9.15909 172.384 9.15909C171.077 9.15909 170.179 9.78409 169.781 10.7557H169.679V9.27273H167.713V18H169.77V12.8864Z" fill="#808080"/>
</svg>
