<svg width="138" height="24" viewBox="0 0 138 24" fill="none" xmlns="http://www.w3.org/2000/svg">
<path d="M9.99301 19.421L3.28601 12.58L4.71401 11.18L10.007 16.579L19.293 7.293L20.707 8.707L9.99301 19.421Z" fill="black"/>
<path d="M48.9432 18H57.2386V15.9886H52.3523V15.9091L54.0511 14.2443C56.4432 12.0625 57.0852 10.9716 57.0852 9.64773C57.0852 7.63068 55.4375 6.20455 52.9432 6.20455C50.5 6.20455 48.8239 7.66477 48.8295 9.94886H51.1648C51.1591 8.83523 51.8636 8.15341 52.9261 8.15341C53.9489 8.15341 54.7102 8.78977 54.7102 9.8125C54.7102 10.7386 54.142 11.375 53.0852 12.392L48.9432 16.2273V18ZM66.8054 10.125H69.3054C68.9872 7.82386 66.9588 6.20455 64.3281 6.20455C61.2543 6.20455 58.8849 8.42045 58.8849 12.1932C58.8849 15.875 61.1009 18.1591 64.3793 18.1591C67.3168 18.1591 69.4134 16.3011 69.4134 13.2386V11.7727H64.544V13.625H67.044C67.0099 15.0682 66.027 15.983 64.3906 15.983C62.544 15.983 61.3793 14.6023 61.3793 12.1705C61.3793 9.75 62.5895 8.38068 64.3679 8.38068C65.6349 8.38068 66.4929 9.03409 66.8054 10.125ZM71.2614 18H76.233C78.8466 18 80.2386 16.6364 80.2386 14.7841C80.2386 13.0625 79.0057 12.0227 77.6818 11.9602V11.8466C78.892 11.5739 79.7841 10.7159 79.7841 9.34659C79.7841 7.60227 78.4886 6.36364 75.9205 6.36364H71.2614V18ZM73.7216 15.9886V12.8977H75.7841C76.9659 12.8977 77.6989 13.5795 77.6989 14.5398C77.6989 15.4148 77.1023 15.9886 75.7273 15.9886H73.7216ZM73.7216 11.233V8.35227H75.5909C76.6818 8.35227 77.3011 8.91477 77.3011 9.75568C77.3011 10.6761 76.5511 11.233 75.5455 11.233H73.7216ZM91.8551 9.71023H94.2131C94.179 7.63636 92.4744 6.20455 89.8835 6.20455C87.3324 6.20455 85.4631 7.61364 85.4744 9.72727C85.4688 11.4432 86.679 12.4261 88.6449 12.8977L89.9119 13.2159C91.179 13.5227 91.8835 13.8864 91.8892 14.6705C91.8835 15.5227 91.0767 16.1023 89.8267 16.1023C88.5483 16.1023 87.6278 15.5114 87.5483 14.3466H85.1676C85.2301 16.8636 87.0312 18.1648 89.8551 18.1648C92.696 18.1648 94.3665 16.8068 94.3722 14.6761C94.3665 12.7386 92.9062 11.7102 90.8835 11.2557L89.8381 11.0057C88.8267 10.7727 87.9801 10.3977 87.9972 9.5625C87.9972 8.8125 88.6619 8.26136 89.8665 8.26136C91.0426 8.26136 91.7642 8.79545 91.8551 9.71023ZM102.339 9.71023H104.697C104.663 7.63636 102.959 6.20455 100.368 6.20455C97.8168 6.20455 95.9474 7.61364 95.9588 9.72727C95.9531 11.4432 97.1634 12.4261 99.1293 12.8977L100.396 13.2159C101.663 13.5227 102.368 13.8864 102.374 14.6705C102.368 15.5227 101.561 16.1023 100.311 16.1023C99.0327 16.1023 98.1122 15.5114 98.0327 14.3466H95.652C95.7145 16.8636 97.5156 18.1648 100.339 18.1648C103.18 18.1648 104.851 16.8068 104.857 14.6761C104.851 12.7386 103.391 11.7102 101.368 11.2557L100.322 11.0057C99.3111 10.7727 98.4645 10.3977 98.4815 9.5625C98.4815 8.8125 99.1463 8.26136 100.351 8.26136C101.527 8.26136 102.249 8.79545 102.339 9.71023ZM110.636 18C114.182 18 116.33 15.8068 116.33 12.1705C116.33 8.54545 114.182 6.36364 110.67 6.36364H106.511V18H110.636ZM108.972 15.892V8.47159H110.54C112.722 8.47159 113.875 9.58523 113.875 12.1705C113.875 14.767 112.722 15.892 110.534 15.892H108.972Z" fill="#808080"/>
</svg>
