<svg width="93" height="14" viewBox="0 0 93 14" fill="none" xmlns="http://www.w3.org/2000/svg">
<path d="M7.47159 4.5625H9.5C9.46023 2.59659 7.78409 1.20455 5.30682 1.20455C2.86364 1.20455 1.02841 2.57955 1.03409 4.63636C1.03409 6.30682 2.22159 7.26705 4.13636 7.76136L5.46023 8.10227C6.71591 8.42045 7.54545 8.8125 7.55114 9.71591C7.54545 10.7102 6.60227 11.375 5.22727 11.375C3.90909 11.375 2.88636 10.7841 2.80114 9.5625H0.727273C0.8125 11.875 2.53409 13.1761 5.24432 13.1761C8.03409 13.1761 9.65341 11.7841 9.65909 9.73295C9.65341 7.71591 7.98864 6.79545 6.23864 6.38068L5.14773 6.10795C4.19318 5.88068 3.15909 5.47727 3.17045 4.50568C3.17614 3.63068 3.96023 2.98864 5.27841 2.98864C6.53409 2.98864 7.36364 3.57386 7.47159 4.5625ZM15.2543 13.1705C17.8111 13.1705 19.4361 11.3693 19.4361 8.67045C19.4361 5.96591 17.8111 4.15909 15.2543 4.15909C12.6974 4.15909 11.0724 5.96591 11.0724 8.67045C11.0724 11.3693 12.6974 13.1705 15.2543 13.1705ZM15.2656 11.5227C13.8509 11.5227 13.1577 10.2614 13.1577 8.66477C13.1577 7.06818 13.8509 5.78977 15.2656 5.78977C16.6577 5.78977 17.3509 7.06818 17.3509 8.66477C17.3509 10.2614 16.6577 11.5227 15.2656 11.5227ZM25.6023 4.27273H23.7898V3.58523C23.7898 2.90341 24.0739 2.52273 24.8409 2.52273C25.1648 2.52273 25.4375 2.59659 25.608 2.64773L26.0227 1.05682C25.7557 0.965909 25.1705 0.818181 24.4602 0.818181C22.9432 0.818181 21.733 1.6875 21.733 3.44886V4.27273H20.4432V5.86364H21.733V13H23.7898V5.86364H25.6023V4.27273ZM31.571 4.27273H29.8494V2.18182H27.7926V4.27273H26.554V5.86364H27.7926V10.7159C27.7812 12.358 28.9744 13.1648 30.5199 13.1193C31.1051 13.1023 31.5085 12.9886 31.7301 12.9148L31.3835 11.3068C31.2699 11.3352 31.0369 11.3864 30.7812 11.3864C30.2642 11.3864 29.8494 11.2045 29.8494 10.375V5.86364H31.571V4.27273ZM35.8026 13.1761C37.1719 13.1761 37.9901 12.5341 38.3651 11.8011H38.4332V13H40.4105V7.15909C40.4105 4.85227 38.5298 4.15909 36.8651 4.15909C35.0298 4.15909 33.6207 4.97727 33.1662 6.56818L35.0866 6.84091C35.2912 6.24432 35.8707 5.73295 36.8764 5.73295C37.831 5.73295 38.3537 6.22159 38.3537 7.07955V7.11364C38.3537 7.70455 37.7344 7.73295 36.1946 7.89773C34.5014 8.07955 32.8821 8.58523 32.8821 10.5511C32.8821 12.267 34.1378 13.1761 35.8026 13.1761ZM36.3366 11.6648C35.4787 11.6648 34.8651 11.2727 34.8651 10.517C34.8651 9.72727 35.5526 9.39773 36.473 9.26705C37.0128 9.19318 38.0923 9.05682 38.3594 8.84091V9.86932C38.3594 10.8409 37.5753 11.6648 36.3366 11.6648ZM46.2855 13.1705C48.4787 13.1705 49.8764 11.8693 50.0241 10.017H48.0582C47.8821 10.9545 47.206 11.4943 46.3026 11.4943C45.0185 11.4943 44.1889 10.4205 44.1889 8.63636C44.1889 6.875 45.0355 5.81818 46.3026 5.81818C47.2912 5.81818 47.8991 6.45455 48.0582 7.29545H50.0241C49.8821 5.40341 48.4048 4.15909 46.2741 4.15909C43.7173 4.15909 42.1037 6.00568 42.1037 8.67045C42.1037 11.3125 43.6776 13.1705 46.2855 13.1705ZM57.2756 9.32955C57.2756 10.6591 56.3267 11.3182 55.4176 11.3182C54.429 11.3182 53.7699 10.6193 53.7699 9.51136V4.27273H51.7131V9.82955C51.7131 11.9261 52.9062 13.1136 54.6222 13.1136C55.929 13.1136 56.8494 12.4261 57.2472 11.4489H57.3381V13H59.3324V4.27273H57.2756V9.32955ZM63.5043 1.36364H61.4474V13H63.5043V1.36364ZM69.4261 13.1705C71.983 13.1705 73.608 11.3693 73.608 8.67045C73.608 5.96591 71.983 4.15909 69.4261 4.15909C66.8693 4.15909 65.2443 5.96591 65.2443 8.67045C65.2443 11.3693 66.8693 13.1705 69.4261 13.1705ZM69.4375 11.5227C68.0227 11.5227 67.3295 10.2614 67.3295 8.66477C67.3295 7.06818 68.0227 5.78977 69.4375 5.78977C70.8295 5.78977 71.5227 7.06818 71.5227 8.66477C71.5227 10.2614 70.8295 11.5227 69.4375 11.5227ZM80.9162 9.32955C80.9162 10.6591 79.9673 11.3182 79.0582 11.3182C78.0696 11.3182 77.4105 10.6193 77.4105 9.51136V4.27273H75.3537V9.82955C75.3537 11.9261 76.5469 13.1136 78.2628 13.1136C79.5696 13.1136 80.4901 12.4261 80.8878 11.4489H80.9787V13H82.973V4.27273H80.9162V9.32955ZM91.9858 6.57955C91.7017 5.10227 90.5199 4.15909 88.4744 4.15909C86.3722 4.15909 84.9403 5.19318 84.946 6.80682C84.9403 8.07955 85.7244 8.92045 87.4006 9.26705L88.8892 9.57955C89.6903 9.75568 90.0653 10.0795 90.0653 10.5739C90.0653 11.1705 89.4176 11.6193 88.4403 11.6193C87.4972 11.6193 86.8835 11.2102 86.7074 10.4261L84.7017 10.6193C84.9574 12.2216 86.304 13.1705 88.446 13.1705C90.6278 13.1705 92.1676 12.0398 92.1733 10.3864C92.1676 9.14205 91.3665 8.38068 89.7188 8.02273L88.2301 7.70455C87.3438 7.50568 86.9915 7.19886 86.9972 6.69318C86.9915 6.10227 87.6449 5.69318 88.5028 5.69318C89.4517 5.69318 89.9517 6.21023 90.1108 6.78409L91.9858 6.57955Z" fill="#808080"/>
</svg>
